<?xml version="1.0" standalone="no"?><!DOCTYPE svg PUBLIC "-//W3C//DTD SVG 1.1//EN" "http://www.w3.org/Graphics/SVG/1.1/DTD/svg11.dtd"><svg t="1565940254928" class="icon" viewBox="0 0 1024 1024" version="1.1" xmlns="http://www.w3.org/2000/svg" p-id="5989" xmlns:xlink="http://www.w3.org/1999/xlink" width="20" height="20"><defs><style type="text/css"></style></defs><path d="M946.2784 0C966.656 0 984.6784 6.9632 1000.448 20.7872 1016.1152 34.7136 1024 51.8144 1024 72.192l0 876.9536c0 20.3776-7.8848 37.4784-23.552 51.3024C984.6784 1014.272 966.656 1021.2352 946.2784 1021.2352L74.9568 1021.2352c-20.3776 0-37.888-6.9632-52.736-20.7872C7.3728 986.5216 0 969.5232 0 949.0432L0 72.192c0-20.3776 7.3728-37.4784 22.2208-51.3024S54.5792 0 74.9568 0L946.2784 0zM227.5328 316.3136c24.064 0 44.8512-8.704 62.464-26.4192 17.6128-17.6128 26.4192-38.4 26.4192-62.464 0-23.9616-8.8064-44.8512-26.4192-62.464C272.384 147.5584 251.5968 138.752 227.5328 138.752c-24.064 0-44.8512 8.8064-62.464 26.3168-17.6128 17.6128-26.4192 38.4-26.4192 62.464 0 25.9072 8.2944 47.2064 24.9856 63.7952C180.4288 308.0192 201.6256 316.3136 227.5328 316.3136zM302.4896 871.3216 302.4896 382.976 152.6784 382.976l0 488.448L302.4896 871.424zM871.3216 871.3216 871.3216 602.2144c0-73.9328-12.4928-130.8672-37.4784-170.7008C808.96 391.7824 761.2416 371.8144 690.9952 371.8144c-70.3488 0-118.3744 25.9072-144.2816 77.7216L543.9488 449.536 543.9488 382.976 399.5648 382.976l0 488.448 149.8112 0L549.376 629.9648c0-83.2512 30.5152-124.928 91.5456-124.928 24.064 0 42.0864 7.8848 54.0672 23.552 11.9808 15.7696 18.944 30.5152 20.7872 44.4416s2.7648 33.792 2.7648 59.6992l0 238.6944L871.3216 871.424z" p-id="5990" fill="#ffffff"></path></svg>