<?xml version="1.0" standalone="no"?><!DOCTYPE svg PUBLIC "-//W3C//DTD SVG 1.1//EN" "http://www.w3.org/Graphics/SVG/1.1/DTD/svg11.dtd"><svg t="1571803033656" class="icon" viewBox="0 0 1024 1024" version="1.1" xmlns="http://www.w3.org/2000/svg" p-id="3974" width="20" height="20" xmlns:xlink="http://www.w3.org/1999/xlink"><defs><style type="text/css"></style></defs><path d="M487.69 225.751c-130.703 12.124-238.49 117.228-253.317 247.91-8.09 67.38 8.09 129.352 40.428 181.883l-13.476 51.2-22.917 83.538 86.241-22.917 52.531-13.455a277.606 277.606 0 0 0 163.041 35.02c134.738-12.124 243.856-119.89 256-253.296 17.51-177.848-130.682-326.062-308.53-309.883z m200.049 410.85c-25.6 44.461-88.924 61.972-117.228 51.2-180.53-72.766-234.434-247.911-234.434-247.911s-8.09-41.759 0-51.2c75.448-92.959 90.276-52.531 109.138 0 18.862 52.552-12.124 70.062-16.18 76.8s-9.42 9.441 0 33.69c10.773 22.896 80.835 95.662 92.98 102.4 10.752 6.717 24.248 8.09 41.758-8.11 28.304-26.932 53.904-13.456 76.8-4.035 41.76 16.18 59.29 25.6 47.166 47.165z" fill="#ffffff" p-id="3975"></path><path d="M942.08 0H81.92A81.92 81.92 0 0 0 0 81.92v860.16A81.92 81.92 0 0 0 81.92 1024h860.16a81.92 81.92 0 0 0 81.92-81.92V81.92A81.92 81.92 0 0 0 942.08 0zM838 530.268C825.877 689.254 696.546 817.254 537.54 828.027a324.096 324.096 0 0 1-165.725-32.338L204.74 840.151c-6.738 1.352-12.125 1.352-16.18-2.683-4.034-2.703-4.034-9.441-2.683-16.179l44.463-163.02c-28.304-53.904-43.11-117.228-36.373-184.587 14.828-154.952 141.476-277.566 296.428-289.69C688.435 169.165 852.828 333.537 838 530.268z" fill="#ffffff" p-id="3976"></path></svg>