<?xml version="1.0" standalone="no"?><!DOCTYPE svg PUBLIC "-//W3C//DTD SVG 1.1//EN" "http://www.w3.org/Graphics/SVG/1.1/DTD/svg11.dtd"><svg t="1571993029438" class="icon" viewBox="0 0 1024 1024" version="1.1" xmlns="http://www.w3.org/2000/svg" p-id="6097" width="20" height="20" xmlns:xlink="http://www.w3.org/1999/xlink"><defs><style type="text/css"></style></defs><path d="M153.6 0h716.8c84.8256 0 153.6 68.7744 153.6 153.6v716.8c0 84.8256-68.7744 153.6-153.6 153.6H153.6C68.7744 1024 0 955.2256 0 870.4V153.6C0 68.7744 68.7744 0 153.6 0z m545.4848 281.6H324.9152C251.52 281.6 192 341.12 192 414.5152v187.0464c0 73.408 59.52 132.9152 132.9152 132.9152h374.1696C772.48 734.4768 832 674.9696 832 601.5616V414.5152C832 341.12 772.48 281.6 699.0848 281.6z" p-id="6098" fill="#ffffff"></path><path d="M609.1904 517.1456l-175.0144 83.456a7.0272 7.0272 0 0 1-10.048-6.336v-172.16c0-5.2352 5.5296-8.6272 10.2016-6.2592l175.0144 88.6912c5.1968 2.6368 5.1072 10.0864-0.1536 12.608z" p-id="6099" fill="#ffffff"></path></svg>